<svg width="46" height="46" viewBox="0 0 46 46" fill="none" xmlns="http://www.w3.org/2000/svg">
<g clip-path="url(#clip0_407_6769)">
<path d="M18.4634 15.1786L22.9714 13.5003L23.018 45.9991C24.5351 45.9994 26.0486 45.8502 27.5365 45.5539V15.1801L22.9984 12.5601L18.4634 15.1786Z" fill="white"/>
<path d="M39.2637 6.7363C34.9193 2.39297 29.1439 0 23 0C16.8561 0 11.0807 2.39297 6.7363 6.7363C2.39191 11.0796 0 16.8566 0 23C0 29.1434 2.39297 34.9193 6.7363 39.2637C8.78797 41.3216 11.2112 42.9718 13.8776 44.1269C15.3338 44.7562 16.852 45.2311 18.4073 45.5436V21.7617L13.8707 19.1416L9.33415 21.759L13.8432 20.0813L13.8707 39.5782C8.03232 36.3487 4.07069 30.1297 4.07069 23C4.07069 12.5625 12.5625 4.07069 23 4.07069C33.4375 4.07069 41.9298 12.5625 41.9298 23C41.9331 27.878 40.0466 32.5676 36.6664 36.0845V21.7617L32.1282 19.1416L27.5927 21.759L32.1007 20.0813L32.1356 44.1222C33.741 43.4268 35.261 42.549 36.6658 41.5063C37.5856 40.8233 38.4539 40.0735 39.2637 39.2632C43.6081 34.9188 46 29.1434 46 22.9995C46 16.8556 43.6081 11.0807 39.2637 6.7363Z" fill="white"/>
</g>
<defs>
<clipPath id="clip0_407_6769">
<rect width="46" height="46" fill="white"/>
</clipPath>
</defs>
</svg>
