<svg width="140" height="47" viewBox="0 0 140 47" fill="none" xmlns="http://www.w3.org/2000/svg">
<path d="M61.56 38H57.8V10H67.68C70.9867 10 73.4533 10.7467 75.08 12.24C76.7067 13.7067 77.52 16.0267 77.52 19.2V38H73.76V18.68C73.76 16.8667 73.2 15.56 72.08 14.76C70.9867 13.9333 69.5333 13.52 67.72 13.52H61.56V38ZM98.6372 38H82.7172V16.68C82.7172 14.7067 83.3439 13.12 84.5972 11.92C85.4505 11.12 86.4105 10.6 87.4772 10.36C88.5439 10.12 89.8505 10 91.3972 10H98.6372V13.52H90.8772C87.9439 13.52 86.4772 14.7467 86.4772 17.2V21.76H95.7172V25.28H86.4772V34.48H98.6372V38ZM103.03 38V19.8C103.03 16.5733 103.816 14.0667 105.39 12.28C106.99 10.4933 109.256 9.6 112.19 9.6C115.15 9.6 117.416 10.32 118.99 11.76C120.59 13.2 121.39 15.2267 121.39 17.84C121.39 19.52 120.99 20.8933 120.19 21.96C119.39 23.0267 118.03 23.8667 116.11 24.48V24.64C118.11 25.4133 119.443 26.52 120.11 27.96C120.803 29.3733 121.15 31.72 121.15 35V38H117.39V32.88C117.39 30.8533 116.816 29.28 115.67 28.16C114.523 27.0133 112.87 26.44 110.71 26.44H108.55V22.92H110.83C113.39 22.92 115.163 22.4 116.15 21.36C117.136 20.32 117.63 19.08 117.63 17.64C117.63 16.28 117.136 15.1867 116.15 14.36C115.19 13.5333 113.91 13.12 112.31 13.12C110.47 13.12 109.083 13.64 108.15 14.68C107.243 15.72 106.79 17.4267 106.79 19.8V38H103.03ZM129.758 17.2V22.56H137.198V26.08H129.758V38H125.998V16.68C125.998 14.7067 126.625 13.12 127.878 11.92C128.732 11.12 129.692 10.6 130.758 10.36C131.825 10.12 133.132 10 134.678 10H138.918V13.52H134.158C131.225 13.52 129.758 14.7467 129.758 17.2Z" fill="#191D23"/>
<g clip-path="url(#clip0_407_8203)">
<path d="M18.062 15.8482L22.472 14.2064L22.5176 45.9987C24.0017 45.999 25.4823 45.8531 26.9379 45.5632V15.8497L22.4984 13.2866L18.062 15.8482Z" fill="#C29F7B"/>
<path d="M38.4101 7.58986C34.1602 3.34094 28.5103 1 22.5 1C16.4897 1 10.8398 3.34094 6.58986 7.58986C2.33991 11.8388 0 17.4902 0 23.5C0 29.5098 2.34094 35.1602 6.58986 39.4101C8.59693 41.4233 10.9675 43.0376 13.5759 44.1676C15.0005 44.7833 16.4857 45.2478 18.0071 45.5536V22.2886L13.5692 19.7255L9.13124 22.286L13.5423 20.6448L13.5692 39.7178C7.8577 36.5585 3.9822 30.4747 3.9822 23.5C3.9822 13.2894 12.2894 4.9822 22.5 4.9822C32.7106 4.9822 41.0183 13.2894 41.0183 23.5C41.0215 28.272 39.176 32.8596 35.8693 36.3001V22.2886L31.4298 19.7255L26.9929 22.286L31.4028 20.6448L31.437 44.163C33.0075 43.4827 34.4945 42.6241 35.8688 41.604C36.7685 40.9358 37.6179 40.2024 38.4101 39.4096C42.6601 35.1597 45 29.5098 45 23.4995C45 17.4892 42.6601 11.8398 38.4101 7.58986Z" fill="#191D23"/>
</g>
<defs>
<clipPath id="clip0_407_8203">
<rect width="45" height="45" fill="white" transform="translate(0 1)"/>
</clipPath>
</defs>
</svg>
