<svg width="84" height="26" viewBox="0 0 84 26" fill="none" xmlns="http://www.w3.org/2000/svg">
<g clip-path="url(#clip0_143_1123)">
<path fill-rule="evenodd" clip-rule="evenodd" d="M51.7999 19.6599C46.9669 23.2329 39.9379 25.1369 33.8749 25.1369C25.7876 25.1771 17.9759 22.2006 11.9659 16.7889C11.5269 16.3789 11.9069 15.8219 12.4659 16.1449C18.2859 19.4942 24.802 21.4511 31.5042 21.8626C38.2064 22.2741 44.913 21.129 51.0989 18.5169C51.9169 18.1959 52.5909 19.0779 51.7999 19.6599Z" fill="#222222"/>
<path fill-rule="evenodd" clip-rule="evenodd" d="M53.8211 17.3459C53.2061 16.5549 49.7211 16.9649 48.1681 17.1699C47.6991 17.2289 47.6111 16.8189 48.0511 16.5259C50.8341 14.5639 55.3731 15.1489 55.9011 15.7939C56.4291 16.4389 55.7551 21.0079 53.1481 23.1749C52.7381 23.4969 52.3571 23.3209 52.5331 22.8819C53.1181 21.4179 54.4361 18.1659 53.8211 17.3459Z" fill="#222222"/>
<path fill-rule="evenodd" clip-rule="evenodd" d="M48.256 2.75994V0.859944C48.2527 0.797482 48.2625 0.735028 48.2849 0.676625C48.3073 0.618222 48.3418 0.565184 48.386 0.520955C48.4302 0.476725 48.4833 0.442278 48.5417 0.419881C48.6001 0.397483 48.6625 0.387637 48.725 0.39095H57.216C57.3442 0.387699 57.4686 0.435071 57.5622 0.522847C57.6558 0.610623 57.711 0.731737 57.716 0.859944V2.47094C57.716 2.73494 57.482 3.08595 57.072 3.67095L52.679 9.93895C54.3531 9.84877 56.0214 10.2012 57.516 10.9609C57.6457 11.0352 57.7542 11.1415 57.831 11.2696C57.9079 11.3978 57.9506 11.5436 57.955 11.693V13.7139C57.955 14.0069 57.662 14.3289 57.34 14.1529C55.9541 13.4356 54.4154 13.0637 52.8549 13.0687C51.2944 13.0738 49.7582 13.4557 48.377 14.1819C48.3071 14.207 48.2322 14.2147 48.1586 14.2045C48.0851 14.1943 48.0151 14.1664 47.9547 14.1233C47.8943 14.0801 47.8452 14.023 47.8116 13.9568C47.7781 13.8905 47.761 13.8172 47.762 13.7429V11.8069C47.7332 11.3543 47.8457 10.9039 48.084 10.5179L53.184 3.22493H48.761C48.6327 3.22819 48.5083 3.18081 48.4147 3.09304C48.3212 3.00526 48.2659 2.88415 48.261 2.75594L48.256 2.75994ZM17.297 14.56H14.716C14.6005 14.5484 14.492 14.4991 14.4072 14.4198C14.3225 14.3405 14.2662 14.2354 14.247 14.1209V0.885945C14.2519 0.757738 14.3072 0.636624 14.4008 0.548848C14.4943 0.461072 14.6187 0.4137 14.747 0.416951H17.147C17.2658 0.418567 17.3797 0.464447 17.4665 0.545644C17.5532 0.626841 17.6065 0.737505 17.616 0.855946V2.58394H17.675C17.903 1.86963 18.3522 1.2463 18.9577 0.804005C19.5632 0.36171 20.2936 0.123341 21.0435 0.123341C21.7933 0.123341 22.5237 0.36171 23.1292 0.804005C23.7347 1.2463 24.1839 1.86963 24.412 2.58394C24.6689 1.8475 25.1538 1.21205 25.7963 0.769734C26.4387 0.327415 27.2053 0.101228 27.985 0.123952C28.5637 0.112275 29.1369 0.239135 29.6567 0.493977C30.1765 0.748819 30.6278 1.12425 30.973 1.58895C31.793 2.70195 31.617 4.31294 31.617 5.74794V14.1249C31.612 14.2531 31.5568 14.3742 31.4632 14.462C31.3696 14.5498 31.2452 14.5972 31.117 14.594H28.569C28.447 14.5866 28.3319 14.5348 28.2455 14.4484C28.1591 14.362 28.1073 14.2469 28.1 14.1249V7.09594C28.1392 6.26559 28.1195 5.43351 28.041 4.60595C27.9873 4.25366 27.7973 3.93655 27.5121 3.72295C27.2269 3.50935 26.8691 3.41635 26.516 3.46395C26.1798 3.47365 25.8537 3.58141 25.578 3.77401C25.3022 3.9666 25.0888 4.23561 24.964 4.54793C24.7517 5.37955 24.6728 6.23957 24.73 7.09594V14.1249C24.725 14.2531 24.6698 14.3742 24.5762 14.462C24.4826 14.5498 24.3582 14.5972 24.23 14.594H21.653C21.531 14.5866 21.4159 14.5348 21.3295 14.4484C21.2431 14.362 21.1913 14.2469 21.184 14.1249V7.09594C21.184 5.63094 21.418 3.43496 19.602 3.43496C17.757 3.43496 17.815 5.54394 17.815 7.09594V14.1249C17.7966 14.2501 17.7327 14.3642 17.6354 14.4452C17.5382 14.5262 17.4145 14.5685 17.288 14.564L17.297 14.56ZM65.039 0.119954C68.876 0.119954 70.956 3.39995 70.956 7.58895C70.956 11.6309 68.671 14.853 65.039 14.853C61.29 14.853 59.239 11.5729 59.239 7.47194C59.21 3.34194 61.289 0.119954 65.039 0.119954ZM65.039 2.84395C63.139 2.84395 63.018 5.45094 63.018 7.06194C63.018 8.67294 62.989 12.1289 65.01 12.1289C67.002 12.1289 67.119 9.34594 67.119 7.64794C67.155 6.4643 67.0267 5.28139 66.738 4.13295C66.6579 3.7494 66.4416 3.40783 66.129 3.17156C65.8164 2.93529 65.4288 2.82034 65.038 2.84795L65.039 2.84395ZM75.905 14.56H73.328C73.206 14.5526 73.0909 14.5008 73.0045 14.4144C72.9181 14.328 72.8663 14.2129 72.859 14.0909V0.826955C72.8752 0.705703 72.9347 0.594402 73.0267 0.513692C73.1186 0.432982 73.2367 0.388302 73.359 0.387929H75.759C75.868 0.391573 75.9729 0.430804 76.0575 0.499593C76.1422 0.568381 76.2021 0.662964 76.228 0.768941V2.78994H76.287C77.019 0.973937 78.015 0.124928 79.802 0.124928C80.3966 0.0979141 80.9879 0.226961 81.5171 0.499226C82.0464 0.771492 82.4952 1.1775 82.819 1.67693C83.493 2.73193 83.493 4.51794 83.493 5.80694V14.1549C83.4753 14.2731 83.4143 14.3805 83.3219 14.4562C83.2295 14.532 83.1123 14.5707 82.993 14.5649H80.416C80.3047 14.5544 80.1995 14.5092 80.1153 14.4356C80.0312 14.362 79.9723 14.2638 79.947 14.1549V6.94994C79.947 5.48594 80.123 3.37694 78.336 3.37694C78.0124 3.39204 77.6999 3.49927 77.4352 3.68599C77.1705 3.87272 76.9647 4.13116 76.842 4.43093C76.5287 5.23214 76.3889 6.09073 76.432 6.94994V14.0969C76.4158 14.2257 76.3534 14.3441 76.2565 14.4304C76.1596 14.5166 76.0347 14.5648 75.905 14.5659V14.56ZM41.49 8.23293C41.5857 9.17613 41.4236 10.1277 41.021 10.986C40.8576 11.3252 40.605 11.6135 40.2901 11.82C39.9753 12.0264 39.6102 12.1433 39.234 12.1579C38.234 12.1579 37.652 11.3959 37.652 10.2829C37.652 8.08295 39.614 7.67595 41.489 7.67595L41.49 8.23293ZM44.097 14.5329C44.0135 14.6058 43.9093 14.6508 43.799 14.6613C43.6886 14.6719 43.5778 14.6476 43.482 14.5919C42.8854 14.1092 42.3795 13.524 41.988 12.8639C41.4773 13.4883 40.8266 13.9835 40.0887 14.3093C39.3508 14.635 38.5464 14.7822 37.741 14.7389C37.2125 14.77 36.6835 14.6862 36.1904 14.4934C35.6973 14.3006 35.2518 14.0033 34.8845 13.6221C34.5172 13.2408 34.2368 12.7845 34.0625 12.2846C33.8882 11.7847 33.8243 11.2529 33.875 10.7259C33.8446 9.82515 34.0926 8.93689 34.5853 8.18212C35.0779 7.42735 35.7912 6.84276 36.628 6.50795C38.2001 5.98653 39.8357 5.68105 41.49 5.59993V5.27794C41.5775 4.63471 41.4651 3.98011 41.168 3.40294C40.9996 3.1846 40.7816 3.00954 40.532 2.89232C40.2824 2.7751 40.0085 2.71909 39.733 2.72893C39.2562 2.68733 38.7809 2.82251 38.3973 3.10869C38.0138 3.39488 37.7488 3.81209 37.653 4.28093C37.594 4.51493 37.453 4.74993 37.214 4.74993L34.724 4.48595C34.6638 4.4775 34.606 4.45699 34.554 4.42565C34.502 4.39431 34.4568 4.35279 34.4213 4.30358C34.3857 4.25436 34.3604 4.19846 34.347 4.13924C34.3335 4.08002 34.3321 4.0187 34.343 3.95894C34.929 0.912943 37.653 0.0049332 40.113 0.0049332C41.5267 -0.0555195 42.9137 0.402919 44.013 1.29393C45.272 2.46593 45.155 4.04693 45.155 5.74593V9.75893C45.1714 10.6506 45.5156 11.505 46.122 12.159C46.298 12.393 46.327 12.6859 46.122 12.8329C45.561 13.2749 44.622 14.0949 44.097 14.5329V14.5329ZM7.66098 8.23293C7.75672 9.17613 7.59461 10.1277 7.19197 10.986C7.02862 11.3252 6.77597 11.6135 6.46114 11.82C6.14631 12.0264 5.7812 12.1433 5.40499 12.1579C4.40499 12.1579 3.82298 11.3959 3.82298 10.2829C3.82298 8.08295 5.78498 7.67595 7.65998 7.67595L7.66098 8.23293ZM10.239 14.5329C10.1555 14.6058 10.0513 14.6508 9.94097 14.6613C9.83065 14.6719 9.71979 14.6476 9.62398 14.5919C9.02741 14.1091 8.52151 13.524 8.12998 12.8639C7.61928 13.4883 6.96858 13.9835 6.23067 14.3093C5.49276 14.635 4.68844 14.7822 3.88298 14.7389C3.35446 14.77 2.82549 14.6862 2.33241 14.4934C1.83934 14.3006 1.39384 14.0033 1.02652 13.6221C0.659207 13.2408 0.378781 12.7845 0.204515 12.2846C0.0302498 11.7847 -0.0337207 11.2529 0.0169848 10.7259C-0.0133793 9.82515 0.234628 8.93689 0.727251 8.18212C1.21987 7.42735 1.93316 6.84276 2.76998 6.50795C4.34205 5.98653 5.97767 5.68105 7.63198 5.59993V5.27794C7.71953 4.63471 7.60713 3.98011 7.30998 3.40294C7.14161 3.1846 6.92358 3.00954 6.67401 2.89232C6.42445 2.7751 6.15052 2.71909 5.87497 2.72893C5.39823 2.68733 4.92285 2.82251 4.53931 3.10869C4.15576 3.39488 3.89085 3.81209 3.79498 4.28093C3.73598 4.51493 3.58997 4.74993 3.35597 4.74993L0.865984 4.48595C0.805847 4.4775 0.748033 4.45699 0.696016 4.42565C0.643999 4.39431 0.598844 4.35279 0.563265 4.30358C0.527685 4.25436 0.502407 4.19846 0.488954 4.13924C0.475501 4.08002 0.474147 4.0187 0.484972 3.95894C1.07097 0.912943 3.79498 0.0049332 6.25498 0.0049332C7.66869 -0.0555195 9.05575 0.402919 10.155 1.29393C11.414 2.46593 11.297 4.04693 11.297 5.74593V9.75893C11.3135 10.6506 11.6577 11.5049 12.264 12.159C12.44 12.393 12.469 12.6859 12.264 12.8329C11.707 13.2719 10.77 14.0919 10.243 14.5329H10.239Z" fill="#222222"/>
</g>
<defs>
<clipPath id="clip0_143_1123">
<rect width="83.493" height="25.138" fill="white"/>
</clipPath>
</defs>
</svg>
