<svg width="74" height="42" viewBox="0 0 74 42" fill="none" xmlns="http://www.w3.org/2000/svg">
<path d="M23.8999 37.441H20.8909V25.517H23.8999V37.441Z" fill="#222222"/>
<path d="M48.1619 28.9341C47.3851 28.5126 46.5148 28.293 45.6309 28.2959C45.2016 28.2723 44.772 28.3377 44.369 28.4878C43.966 28.6378 43.5983 28.8693 43.2889 29.168C42.9795 29.4666 42.7352 29.8261 42.5713 30.2236C42.4073 30.6211 42.3271 31.0481 42.3359 31.478C42.3268 31.908 42.4068 32.3352 42.5706 32.7329C42.7344 33.1306 42.9786 33.4902 43.2879 33.7891C43.5973 34.0879 43.9652 34.3197 44.3684 34.4697C44.7716 34.6198 45.2014 34.685 45.6309 34.6611C46.514 34.6631 47.3837 34.4453 48.1619 34.0278V37.228C47.273 37.5005 46.3496 37.6431 45.4199 37.6518C44.5905 37.6902 43.7619 37.5581 42.9855 37.2637C42.2091 36.9692 41.5013 36.5187 40.9059 35.9399C40.3104 35.3613 39.8397 34.667 39.5231 33.8994C39.2065 33.1318 39.0505 32.3073 39.0649 31.477C39.0514 30.6472 39.2079 29.8232 39.5249 29.0561C39.8418 28.2891 40.3125 27.5953 40.9079 27.0171C41.5034 26.439 42.2109 25.9891 42.9869 25.6948C43.7629 25.4006 44.5909 25.2682 45.4199 25.3061C46.3505 25.3087 47.2751 25.453 48.1619 25.7349V28.9341ZM16.7549 28.9341C15.9795 28.5118 15.1098 28.2924 14.2269 28.2969C13.7972 28.2725 13.3671 28.3376 12.9635 28.4873C12.56 28.637 12.1918 28.8683 11.8819 29.167C11.5719 29.4657 11.327 29.8253 11.1627 30.2231C10.9983 30.621 10.918 31.0486 10.9269 31.479C10.918 31.9095 10.9982 32.3373 11.1623 32.7353C11.3265 33.1334 11.5712 33.493 11.8809 33.792C12.1909 34.0908 12.5593 34.3224 12.963 34.4722C13.3668 34.6219 13.797 34.6866 14.2269 34.6621C15.1091 34.6651 15.9782 34.4472 16.7549 34.0288V37.229C15.8654 37.5029 14.9406 37.6455 14.0099 37.6528C13.1807 37.6912 12.3525 37.5591 11.5764 37.2646C10.8003 36.9702 10.0929 36.5197 9.49795 35.9409C8.90299 35.362 8.43299 34.6675 8.11703 33.8999C7.80107 33.1323 7.64584 32.308 7.66091 31.478C7.64716 30.6486 7.8034 29.8253 8.12002 29.0586C8.43664 28.2919 8.90695 27.598 9.50192 27.02C10.0969 26.442 10.8038 25.9922 11.5793 25.6977C12.3548 25.4033 13.1823 25.2706 14.0109 25.3081C14.942 25.3092 15.8675 25.453 16.7549 25.7349V28.9341ZM57.6279 28.3418C57.216 28.3379 56.8076 28.4166 56.4266 28.5732C56.0456 28.7299 55.6999 28.9614 55.4099 29.2539C55.12 29.5463 54.8915 29.8937 54.7381 30.2759C54.5847 30.658 54.5095 31.0673 54.5169 31.479C54.5092 31.891 54.5841 32.3001 54.7373 32.6826C54.8905 33.0651 55.1189 33.4133 55.4089 33.706C55.699 33.9988 56.0448 34.2304 56.4259 34.3872C56.8071 34.544 57.2158 34.623 57.6279 34.6191C58.04 34.6229 58.4487 34.544 58.8299 34.3872C59.211 34.2304 59.5568 33.9988 59.847 33.706C60.1372 33.4134 60.3658 33.0656 60.5193 32.6831C60.6729 32.3006 60.7482 31.8911 60.7409 31.479C60.7472 31.0668 60.6708 30.6575 60.5163 30.2754C60.3617 29.8932 60.132 29.5458 59.8409 29.2539C59.5508 28.9615 59.2051 28.7304 58.8242 28.5737C58.4432 28.4171 58.0348 28.338 57.623 28.3418H57.6279ZM63.9229 31.478C63.9305 32.3016 63.7718 33.1185 63.4563 33.8794C63.1409 34.6402 62.6751 35.3296 62.0869 35.9062C61.4987 36.4829 60.8002 36.935 60.0332 37.2353C59.2661 37.5357 58.4464 37.6778 57.623 37.6538C56.7996 37.6779 55.9798 37.536 55.2128 37.2358C54.4458 36.9356 53.7472 36.4837 53.1589 35.9072C52.5706 35.3305 52.1047 34.6409 51.7892 33.8799C51.4737 33.1188 51.3151 32.3018 51.3229 31.478C51.3159 30.6546 51.475 29.8381 51.7908 29.0776C52.1066 28.3171 52.5726 27.6284 53.1609 27.0522C53.7491 26.476 54.4476 26.0241 55.2144 25.7241C55.9813 25.4241 56.8008 25.282 57.6239 25.3061C58.4469 25.2824 59.2662 25.4249 60.0329 25.7251C60.7995 26.0253 61.4978 26.477 62.0859 27.0532C62.6739 27.6294 63.1398 28.3178 63.4556 29.0781C63.7714 29.8384 63.9307 30.6548 63.9239 31.478H63.9229ZM35.3059 28.228C34.5386 28.0166 33.7493 27.895 32.9539 27.8652C31.7479 27.8652 31.0929 28.2648 31.0929 28.8418C31.0929 29.5688 31.9769 29.822 32.4719 29.978L33.3019 30.2422C34.0902 30.4088 34.7994 30.8361 35.3152 31.4551C35.831 32.0741 36.1232 32.8484 36.1449 33.6538C36.1449 36.6538 33.5109 37.6538 31.2079 37.6538C30.1179 37.6437 29.0311 37.5349 27.9609 37.3281V34.582C28.885 34.8508 29.8398 34.9998 30.8019 35.0259C32.3019 35.0259 32.9869 34.5881 32.9869 33.9131C32.9869 33.3131 32.3869 32.9601 31.6449 32.7261C31.4639 32.6651 31.1889 32.5801 31.0029 32.5181C29.3269 31.9881 27.9299 31.0028 27.9299 29.0298C27.9299 26.7998 29.5999 25.3022 32.3729 25.3022C33.3619 25.3156 34.3461 25.4427 35.3059 25.6811V28.2261V28.228Z" fill="#222222"/>
<path d="M4.46893 12.703C4.46787 12.3076 4.30991 11.9288 4.02979 11.6498C3.74966 11.3708 3.37027 11.2147 2.97491 11.2152C2.57981 11.2149 2.20075 11.3711 1.92072 11.6498C1.64068 11.9285 1.48254 12.3069 1.48096 12.702V15.8329C1.49186 16.2224 1.65384 16.5925 1.93268 16.8646C2.21152 17.1367 2.5853 17.2895 2.97491 17.2909C3.36499 17.291 3.73963 17.1385 4.0188 16.8661C4.29797 16.5936 4.45953 16.2228 4.46893 15.8329V12.703ZM12.674 8.59509C12.674 8.19886 12.5165 7.81863 12.2363 7.53845C11.9561 7.25827 11.5762 7.10095 11.1799 7.10095C10.7837 7.10095 10.4037 7.25827 10.1235 7.53845C9.84336 7.81863 9.68591 8.19886 9.68591 8.59509V15.8329C9.68591 16.2291 9.84336 16.6093 10.1235 16.8895C10.4037 17.1697 10.7837 17.327 11.1799 17.327C11.5762 17.327 11.9561 17.1697 12.2363 16.8895C12.5165 16.6093 12.674 16.2291 12.674 15.8329V8.59412V8.59509ZM20.8799 2.97302C20.8789 2.57775 20.7211 2.19893 20.4412 1.9198C20.1613 1.64067 19.7822 1.48425 19.3869 1.48425C18.9913 1.48399 18.6117 1.64043 18.3316 1.9198C18.0515 2.19917 17.8937 2.57838 17.8929 2.974V18.807C17.9026 19.1968 18.0642 19.5675 18.3434 19.8397C18.6225 20.1119 18.997 20.2642 19.3869 20.264C19.7768 20.2642 20.1513 20.1119 20.4305 19.8397C20.7096 19.5675 20.8713 19.1968 20.8809 18.807L20.8799 2.97302ZM29.085 8.59509C29.085 8.19886 28.9275 7.81863 28.6473 7.53845C28.3672 7.25827 27.9872 7.10095 27.5909 7.10095C27.1947 7.10095 26.8147 7.25827 26.5345 7.53845C26.2543 7.81863 26.0969 8.19886 26.0969 8.59509V15.8329C26.0969 16.2291 26.2543 16.6093 26.5345 16.8895C26.8147 17.1697 27.1947 17.327 27.5909 17.327C27.9872 17.327 28.3672 17.1697 28.6473 16.8895C28.9275 16.6093 29.085 16.2291 29.085 15.8329V8.59412V8.59509ZM37.2849 12.703C37.2852 12.3088 37.1289 11.9308 36.8505 11.6517C36.572 11.3727 36.1941 11.2157 35.7999 11.2152C35.4047 11.2144 35.0253 11.3705 34.7451 11.6493C34.465 11.9281 34.307 12.3068 34.3059 12.702V15.8329C34.3059 16.2278 34.4628 16.6069 34.7421 16.8861C35.0213 17.1654 35.4 17.3221 35.7949 17.3221C36.189 17.3208 36.5664 17.1633 36.8446 16.8842C37.1228 16.6051 37.2789 16.2269 37.2789 15.8329L37.2849 12.703ZM45.494 8.59509C45.4843 8.20654 45.3232 7.83725 45.045 7.5658C44.7668 7.29435 44.3936 7.14211 44.0049 7.14197C43.6163 7.14211 43.243 7.29435 42.9648 7.5658C42.6867 7.83725 42.5256 8.20654 42.5159 8.59509V15.8329C42.5159 16.2278 42.6728 16.6069 42.952 16.8861C43.2313 17.1654 43.61 17.3221 44.0049 17.3221C44.3999 17.3221 44.7786 17.1654 45.0578 16.8861C45.337 16.6069 45.494 16.2278 45.494 15.8329V8.59412V8.59509ZM53.705 2.97302C53.7047 2.57829 53.5476 2.1998 53.2684 1.92078C52.9892 1.64175 52.6107 1.48523 52.2159 1.48523C51.8212 1.48523 51.4426 1.64175 51.1634 1.92078C50.8842 2.1998 50.7272 2.57829 50.7269 2.97302V18.807C50.7151 19.0758 50.7763 19.3427 50.9039 19.5795C51.0316 19.8163 51.2209 20.0144 51.4519 20.1522C51.683 20.2899 51.947 20.3622 52.2159 20.3622C52.4849 20.3622 52.7488 20.2899 52.9799 20.1522C53.2111 20.0143 53.4005 19.816 53.5282 19.579C53.6559 19.342 53.717 19.075 53.705 18.806V2.97302ZM61.9139 8.59509C61.9132 8.3979 61.8737 8.20276 61.7975 8.02087C61.7213 7.83899 61.61 7.67386 61.4699 7.53503C61.3296 7.39667 61.1635 7.28738 60.9809 7.21326C60.7983 7.13913 60.603 7.1015 60.4059 7.10291C60.0109 7.10317 59.6322 7.26052 59.353 7.53992C59.0738 7.81932 58.9169 8.19814 58.9169 8.59314V15.8319C58.9164 16.0279 58.9546 16.222 59.0292 16.4032C59.1039 16.5844 59.2135 16.7493 59.3519 16.8881C59.6313 17.168 60.0104 17.3255 60.4059 17.326C60.6033 17.3278 60.799 17.2905 60.9818 17.2162C61.1645 17.1419 61.3308 17.0319 61.4709 16.8929C61.6112 16.7541 61.7226 16.5892 61.7986 16.4071C61.8747 16.225 61.9139 16.0293 61.9139 15.8319V8.59314V8.59509ZM70.1079 12.703C70.1079 12.3076 69.9508 11.9284 69.6712 11.6488C69.3916 11.3692 69.0124 11.2118 68.6169 11.2118C68.2215 11.2118 67.8422 11.3692 67.5626 11.6488C67.283 11.9284 67.1259 12.3076 67.1259 12.703V15.8329C67.1255 16.029 67.1638 16.2234 67.2385 16.4047C67.3133 16.586 67.423 16.7507 67.5615 16.8895C67.7 17.0284 67.8645 17.1385 68.0456 17.2137C68.2267 17.289 68.4208 17.3279 68.6169 17.328C68.8129 17.3277 69.0068 17.289 69.1877 17.2137C69.3687 17.1385 69.533 17.0283 69.6713 16.8895C69.8097 16.7508 69.9194 16.5863 69.9941 16.4052C70.0689 16.224 70.1072 16.0298 70.1069 15.8339V12.704L70.1079 12.703Z" fill="#222222"/>
<path d="M68.3838 35.8708V36.0579H67.8518V37.4412H67.6328V36.0588H67.0989V35.8708H68.3838ZM68.4949 35.8708H68.8368L69.3068 37.1589H69.3148L69.7698 35.8718H70.1058V37.4412H69.8818V36.1541H69.8738L69.3978 37.4412H69.1908L68.7258 36.1541H68.7158V37.4412H68.4968L68.4949 35.8708Z" fill="#222222"/>
</svg>
