<svg width="122" height="24" viewBox="0 0 122 24" fill="none" xmlns="http://www.w3.org/2000/svg">
<g clip-path="url(#clip0_143_1138)">
<path fill-rule="evenodd" clip-rule="evenodd" d="M3.70089 2.23505C4.60915 1.44588 5.66465 0.844297 6.80651 0.46499C7.94838 0.0856833 9.15404 -0.0638452 10.354 0.0250249C11.5539 0.113895 12.7244 0.439406 13.7979 0.982791C14.8714 1.52618 15.8268 2.27669 16.6089 3.19105C18.2907 4.89178 19.273 7.16175 19.3615 9.55197C19.45 11.9422 18.6383 14.2786 17.0869 16.0991L9.91589 23.2701C8.48189 22.3141 6.09189 20.4021 7.04789 18.4891C8.95989 16.0991 11.3479 14.1891 13.2629 11.7961C14.6969 9.88405 13.7409 6.05905 10.8729 5.58105C10.2293 5.35609 9.53875 5.30014 8.86735 5.41855C8.19595 5.53696 7.56619 5.82578 7.0384 6.25732C6.51061 6.68887 6.10245 7.2487 5.85303 7.8832C5.6036 8.5177 5.52126 9.20561 5.61389 9.88105C5.61389 12.2711 7.52589 13.7051 8.95989 15.1401C7.52589 16.5741 5.61389 17.5301 5.61389 19.4401C4.17989 17.5281 1.78989 16.0941 0.832887 13.7031C-0.0411384 11.7463 -0.233568 9.55284 0.286386 7.47375C0.80634 5.39466 2.00863 3.55005 3.70089 2.23505V2.23505Z" fill="#222222"/>
<path fill-rule="evenodd" clip-rule="evenodd" d="M34.2968 2.23499C34.7748 0.800995 36.2088 1.27899 37.1648 1.27899V18.962H34.2968V17.532C33.1458 18.46 31.7118 18.9661 30.2333 18.9661C28.7548 18.9661 27.3208 18.46 26.1698 17.532C24.8458 16.3232 24.0528 14.6404 23.9633 12.8499C23.8738 11.0593 24.495 9.30585 25.6918 7.97099C26.768 6.79969 28.2318 6.05758 29.8127 5.88184C31.3936 5.7061 32.9846 6.10862 34.2918 7.01499L34.2968 2.23499ZM29.9968 8.44999C27.6068 8.92799 25.6968 12.274 27.6068 14.665C27.9639 15.1859 28.4518 15.6038 29.0214 15.8765C29.5911 16.1493 30.2225 16.2674 30.8522 16.2189C31.4819 16.1705 32.0878 15.9573 32.6091 15.6006C33.1303 15.2439 33.5485 14.7564 33.8218 14.187C35.2528 11.796 32.8618 8.44899 29.9938 8.44899L29.9968 8.44999Z" fill="#222222"/>
<path fill-rule="evenodd" clip-rule="evenodd" d="M39.5549 6.05907H42.4229V7.01507C43.3789 5.58107 45.2909 5.58107 47.2039 6.05907C46.7259 7.01507 46.2479 7.49307 46.2479 8.44907C44.3359 7.97107 42.4239 8.92707 42.4239 10.3611V17.5321C41.9449 18.9711 40.5109 18.9711 39.5549 18.9711V6.05907Z" fill="#222222"/>
<path fill-rule="evenodd" clip-rule="evenodd" d="M51.5058 6.06009C56.2868 4.14809 61.0668 8.92809 60.1058 13.7091C59.1448 18.4901 52.4568 20.8801 49.1058 17.5331C45.2818 14.1871 46.7158 7.01609 51.4958 6.06009H51.5058ZM52.9398 8.45009C52.137 8.66424 51.405 9.08635 50.8175 9.67383C50.23 10.2613 49.8079 10.9933 49.5938 11.7961C49.4957 12.3415 49.5227 12.9021 49.6729 13.4355C49.8231 13.969 50.0925 14.4613 50.4608 14.8754C50.829 15.2895 51.2866 15.6146 51.7988 15.826C52.3111 16.0375 52.8646 16.1298 53.4178 16.0961C55.3298 16.0961 57.2418 14.6621 57.2418 12.7501C57.2418 10.3621 54.8528 7.97209 52.9418 8.45009H52.9398Z" fill="#222222"/>
<path fill-rule="evenodd" clip-rule="evenodd" d="M62.0239 6.05903H64.8919V7.01503C66.1991 6.10866 67.7901 5.70614 69.371 5.88187C70.9519 6.05761 72.4158 6.79972 73.4919 7.97103C74.0829 8.58531 74.5416 9.31425 74.8398 10.1128C75.1379 10.9114 75.2691 11.7626 75.2252 12.6139C75.1813 13.4652 74.9633 14.2984 74.5847 15.0621C74.2061 15.8258 73.6749 16.5037 73.0239 17.054C71.1119 19.444 67.2869 19.444 64.8969 18.01V22.31C64.4189 23.744 62.9849 23.744 62.0289 23.744V6.05903H62.0239ZM68.2389 8.44903C65.3709 8.92703 63.9389 12.273 65.3709 14.186C66.8049 16.576 70.6299 16.576 71.5859 14.186C73.4969 11.795 71.1069 8.44903 68.2389 8.44903Z" fill="#222222"/>
<path fill-rule="evenodd" clip-rule="evenodd" d="M80.1898 6.53807C81.3997 5.85959 82.795 5.58636 84.1715 5.75839C85.5479 5.93043 86.8331 6.53868 87.8388 7.49407C87.3608 7.97207 86.8828 8.92807 85.9268 9.40607C85.4812 9.04506 84.9577 8.79258 84.3978 8.66856C83.8379 8.54453 83.2568 8.55237 82.7004 8.69144C82.1441 8.83051 81.6276 9.097 81.1919 9.46989C80.7562 9.84278 80.4131 10.3119 80.1898 10.8401C79.982 11.4061 79.9076 12.0125 79.9722 12.612C80.0369 13.2115 80.2389 13.7881 80.5626 14.2968C80.8863 14.8056 81.3229 15.2328 81.8386 15.5454C82.3542 15.858 82.935 16.0474 83.5358 16.0991C84.4918 16.0991 85.4478 15.6211 86.4038 15.6211C87.2577 15.9971 87.9398 16.6792 88.3158 17.5331C84.9698 20.4011 79.2328 19.4451 77.7988 15.1431C75.8868 12.2741 77.3208 8.44807 80.1898 6.53807Z" fill="#222222"/>
<path fill-rule="evenodd" clip-rule="evenodd" d="M88.3169 14.6641C86.8849 10.3621 90.2289 5.58105 94.5319 5.58105C96.253 5.65618 97.8982 6.3111 99.2 7.4394C100.502 8.5677 101.384 10.1031 101.703 11.7961V18.9671C100.269 18.9671 99.3129 18.9671 98.3569 18.0111C95.0109 20.4011 89.7569 18.4891 88.3179 14.6651L88.3169 14.6641ZM94.5319 8.44905C93.8735 8.57292 93.2544 8.85246 92.726 9.26436C92.1977 9.67626 91.7756 10.2086 91.4949 10.8168C91.2142 11.4251 91.0831 12.0917 91.1125 12.761C91.1419 13.4302 91.331 14.0827 91.6639 14.6641C93.5759 17.0541 97.4009 16.5761 98.3569 14.1861C98.6017 13.5557 98.6912 12.8756 98.6178 12.2034C98.5444 11.5311 98.3102 10.8864 97.935 10.3237C97.5599 9.76106 97.0548 9.29696 96.4625 8.97067C95.8701 8.64437 95.208 8.46546 94.5319 8.44905V8.44905Z" fill="#222222"/>
<path fill-rule="evenodd" clip-rule="evenodd" d="M103.615 6.06009H106.483V7.01609C107.917 5.10409 111.264 5.58209 113.176 7.49409C115.566 4.62609 120.347 5.58209 121.303 8.92809C121.781 11.7961 121.303 15.1431 121.303 18.0111C121.303 18.9671 119.869 18.9671 118.435 18.9671C118.435 16.0991 118.913 13.2301 118.435 10.3671C118.341 9.86519 118.075 9.41183 117.683 9.08556C117.29 8.75929 116.796 8.58068 116.285 8.58068C115.774 8.58068 115.28 8.75929 114.887 9.08556C114.495 9.41183 114.229 9.86519 114.135 10.3671V18.9671H111.267C111.346 15.9316 111.186 12.8945 110.789 9.88409C110.311 7.97209 106.965 8.45009 106.965 10.3621C106.568 13.2106 106.408 16.0871 106.487 18.9621H103.615V6.06009Z" fill="#222222"/>
</g>
<defs>
<clipPath id="clip0_143_1138">
<rect width="121.516" height="23.743" fill="white"/>
</clipPath>
</defs>
</svg>
